# xmcd
#
# Track frame offsets:
#	150
#	10482
#	23375
#	37432
#	52370
#	59400
#	80862
#	96402
#	108377
#	124425
#
# Disc length: 1786 seconds
#
# Revision: 0
# Processed by: cddbd v1.5.2PL0 Copyright (c) Steve Scherf et al.
# Submitted via: audiograbber 1.83.01
#
DISCID=9606f80a
DTITLE=Darrel Mansfield - Delta blues
DYEAR=1997
DGENRE=Blues
TTITLE0=You Got To Move
TTITLE1=Keep Your Lamp
TTITLE2=Nobody's Fault
TTITLE3=Jesus Comin' Soon
TTITLE4=Cornerstone
TTITLE5=Celestial Shore
TTITLE6=Slidin'
TTITLE7=Cover Me
TTITLE8=Need Somebody On Your Bond
TTITLE9=Wonderful God
EXTD=
EXTT0=
EXTT1=
EXTT2=
EXTT3=
EXTT4=
EXTT5=
EXTT6=
EXTT7=
EXTT8=
EXTT9=
PLAYORDER=
